<svg xmlns="http://www.w3.org/2000/svg" xmlns:xlink="http://www.w3.org/1999/xlink" width="1080" zoomAndPan="magnify" viewBox="0 0 810 809.999993" height="1080" preserveAspectRatio="xMidYMid meet" version="1.0"><defs><g/></defs><path fill="currentColor" d="M 283.542969 164.632812 L 283.542969 537.847656 C 265.140625 529.859375 243.777344 525.289062 220.992188 525.289062 C 151.898438 525.289062 95.890625 567.308594 95.890625 619.140625 C 95.890625 670.96875 151.898438 712.988281 220.992188 712.988281 C 290.082031 712.988281 346.089844 670.96875 346.089844 619.140625 L 346.089844 226.746094 L 533.742188 275.027344 L 533.742188 149.898438 L 283.542969 87.332031 Z M 283.542969 164.632812 " fill-opacity="1" fill-rule="evenodd"/><g fill="currentColor" fill-opacity="1"><g transform="translate(431.121078, 737.499828)"><g><path d="M 71.75 -205.453125 L 19.953125 -230.65625 C 20.421875 -232.28125 21.117188 -234.550781 22.046875 -237.46875 C 22.984375 -240.382812 25.785156 -245.457031 30.453125 -252.6875 C 35.117188 -259.925781 40.597656 -266.34375 46.890625 -271.9375 C 53.191406 -277.539062 62.410156 -282.617188 74.546875 -287.171875 C 86.679688 -291.722656 100.332031 -294 115.5 -294 C 143.03125 -294 165.71875 -286.125 183.5625 -270.375 C 201.414062 -254.625 210.34375 -234.5 210.34375 -210 C 210.34375 -187.132812 201.828125 -169.050781 184.796875 -155.75 C 209.296875 -140.8125 221.546875 -118.757812 221.546875 -89.59375 C 221.546875 -62.0625 211.453125 -39.367188 191.265625 -21.515625 C 171.085938 -3.671875 145.484375 5.25 114.453125 5.25 C 97.878906 5.25 82.828125 2.800781 69.296875 -2.09375 C 55.765625 -7 45.207031 -12.890625 37.625 -19.765625 C 30.039062 -26.648438 23.738281 -33.59375 18.71875 -40.59375 C 13.707031 -47.59375 10.269531 -53.546875 8.40625 -58.453125 L 5.953125 -65.796875 L 66.84375 -95.546875 C 66.84375 -94.378906 67.019531 -92.800781 67.375 -90.8125 C 67.726562 -88.832031 68.953125 -85.273438 71.046875 -80.140625 C 73.148438 -75.015625 75.71875 -70.523438 78.75 -66.671875 C 81.78125 -62.828125 86.382812 -59.328125 92.5625 -56.171875 C 98.75 -53.023438 105.925781 -51.453125 114.09375 -51.453125 C 126.46875 -51.453125 136.503906 -54.832031 144.203125 -61.59375 C 151.898438 -68.363281 155.75 -77.695312 155.75 -89.59375 C 155.75 -101.96875 151.722656 -112.117188 143.671875 -120.046875 C 135.617188 -127.984375 125.757812 -131.953125 114.09375 -131.953125 L 101.5 -129.84375 L 101.5 -172.90625 L 115.84375 -172.90625 C 124.945312 -172.90625 133 -176.40625 140 -183.40625 C 147 -190.40625 150.5 -199.035156 150.5 -209.296875 C 150.5 -218.398438 146.941406 -225.984375 139.828125 -232.046875 C 132.710938 -238.117188 124.367188 -241.15625 114.796875 -241.15625 C 108.035156 -241.15625 101.910156 -239.925781 96.421875 -237.46875 C 90.941406 -235.019531 86.742188 -232.046875 83.828125 -228.546875 C 80.910156 -225.046875 78.457031 -221.546875 76.46875 -218.046875 C 74.488281 -214.546875 73.265625 -211.628906 72.796875 -209.296875 Z M 71.75 -205.453125 "/></g></g></g></svg>